<?xml version="1.0" encoding="utf-8"?>
<!-- Generator: Adobe Illustrator 24.0.2, SVG Export Plug-In . SVG Version: 6.00 Build 0)  -->
<svg version="1.1" id="Capa_1" xmlns="http://www.w3.org/2000/svg" xmlns:xlink="http://www.w3.org/1999/xlink" x="0px" y="0px"
	 viewBox="0 0 150 150" style="enable-background:new 0 0 150 150;" xml:space="preserve">
<style type="text/css">
	.st0{fill:#60B239;}
</style>
<g>
	<path class="st0" d="M86.7,144.7c-0.9-0.3-1.8-0.7-2.7-1c-0.2-0.1-0.5-0.1-0.8-0.1c-1.3,0-2.7,0.4-3.9,0c-18-4.7-36-9.6-54.1-14.3
		c-2.2-0.6-3.4-1.9-4-4.1c-6.6-25.9-13.3-51.8-20-77.6c-1-4,2.3-7.4,6.1-6c0.2,0.1,0.5,0.1,0.6,0.2c1.4-2.3,2.9-4.6,4.2-6.9
		c0.7-1.3,1.6-1.8,3-1.7c3.3,0.2,6.5,0.3,9.9,0.5c-0.6-2.2-1.1-4.3-1.7-6.5c-0.6-2.5,0.2-3.5,2.8-3.2c13.3,1.8,25.3,6.5,35.3,15.7
		c2.6,2.4,4.8,5.3,7.2,8c0.2,0.3,0.5,0.6,0.8,1c0.1-0.5,0.2-0.8,0.2-1c1.6-13.2,7.6-24.3,16.8-33.7c2.8-2.8,6-5.3,9.1-7.9
		c1.9-1.6,3.2-1,3.9,1.4c0.6,2.2,1.1,4.3,1.7,6.5c2.8-1.7,5.6-3.4,8.2-5.1c1.4-0.9,2.6-0.9,4,0.1c2.1,1.4,4.4,2.6,6.7,3.9
		c0.3-0.3,0.7-0.7,1.2-1c2.5-2,6.1-1.1,7.2,1.9c0.2,0.4,0.3,0.9,0.4,1.4c4.7,18.2,9.4,36.5,14.1,54.7c0.1,0.3,0.2,0.7,0.2,1
		c0.2,1.2-0.3,2.2-1.3,2.5c-1,0.3-2-0.3-2.4-1.4c-0.2-0.4-0.3-0.9-0.4-1.4c-4.6-17.9-9.2-35.8-13.8-53.7c-0.1-0.4-0.2-0.8-0.3-1.1
		c-0.4-1.2-0.7-1.3-1.7-0.4c-4.3,4.1-8.6,8.3-13,12.4c-9,8.6-17.9,17.2-26.9,25.7c-1.1,1-1.3,1.9-0.9,3.4
		c6.5,25.2,13,50.4,19.5,75.6c0.1,0.3,0.2,0.7,0.3,1c0.4,1.4,0.8,1.5,1.8,0.5c5.4-5.2,10.8-10.4,16.2-15.5
		c8-7.6,15.9-15.3,23.9-22.9c0.8-0.8,1-1.4,0.7-2.5c-0.8-2.9-1.6-5.8-2.3-8.8c-0.4-1.7,0.7-2.9,2.2-2.5c0.6,0.2,1.3,0.8,1.5,1.4
		c1,3.4,1.8,6.8,2.7,10.3c0.4,1.9-0.4,3.3-1.7,4.6c-7.2,6.9-14.4,13.8-21.6,20.7c-6.1,5.9-12.3,11.7-18.4,17.6
		c-1.1,1.1-2.2,2.2-4,2.2c-0.2,0-0.4,0.2-0.5,0.3c-0.7,0.8-1.3,1.6-2,2.3C96,142.3,91.4,143.5,86.7,144.7z M71.7,100
		c-3.3-12.8-6.6-25.5-9.8-38.3c-0.3-1.2-0.8-1.7-2-2c-15.1-4-30.2-8-45.3-12c-2.8-0.7-5.6-1.5-8.4-2.2C4.9,45,4.7,45.3,5,46.6
		c0.1,0.3,0.1,0.5,0.2,0.8c6.5,25.4,13.1,50.7,19.5,76.1c0.3,1.4,1,2,2.3,2.3c17.6,4.7,35.3,9.4,52.9,14.1c1.9,0.5,2.1,0.3,1.6-1.6
		C78.3,125.5,75,112.8,71.7,100z M11.8,42.8c0.8,0.2,1.2,0.4,1.7,0.5c15.6,4.2,31.2,8.3,46.8,12.5c2.7,0.7,5,0.3,7.9-0.7
		c-2.5-1.9-4.7-3.8-7.1-5.2c-3.9-2.3-8-4.2-12-6.2c-1.4-0.7-1.9-1.5-1.5-2.7c0.5-1.2,1.4-1.5,3-0.9c0.6,0.2,1.1,0.4,1.7,0.7
		c3.2,1.5,6.3,3.1,9.7,4.7c-9.4-9.9-20.9-15.1-34.2-17.3c0.5,1.9,0.9,3.5,1.3,5.2c0.2,0.7,0.5,1,1.3,1.2c2.5,0.4,5,0.9,7.5,1.5
		c1.1,0.2,1.7,1.2,1.5,2.2c-0.2,1.1-1.1,1.7-2.3,1.5c-0.4-0.1-0.8-0.2-1.3-0.3c-6.3-1.4-12.7-2.2-19.2-2.4c-0.5,0-1.1,0.1-1.3,0.4
		C14,39.2,12.9,40.9,11.8,42.8z M81.9,123.7c4.4-1.1,8.7-2.2,12.9-3.3c-4-15.6-8-31.1-12-46.6c-4.3,1.1-8.6,2.2-12.9,3.3
		C73.9,92.6,77.9,108.1,81.9,123.7z M117.2,15.7c-1.9-1-3.5-1.8-5-2.7c-0.7-0.4-1.2-0.4-1.9,0c-7.6,4.5-14.6,9.9-20.8,16.3
		C83,36,77.6,43.6,74.3,52.5c-0.1,0.3-0.2,0.7-0.3,1c3.2-0.1,5.5-1.6,7.7-3.8c9-8.8,18.1-17.4,27.1-26
		C111.6,21.1,114.2,18.5,117.2,15.7z M74.8,42c1.4-2.1,2.8-4.3,4.3-6.4c5-6.9,11-12.9,17.7-18.1c0.4-0.3,0.9-1,0.8-1.4
		c-0.3-1.8-0.9-3.6-1.4-5.6C85.7,18.9,78.1,29,74.8,42z M79.7,61.5c-0.4-1.4-0.7-2.8-1.1-4.1c-0.1-0.3-0.7-0.6-1.1-0.5
		c-3.8,0.9-7.5,1.9-11.2,2.9c-0.3,0.1-0.7,0.7-0.7,1c0.3,1.4,0.7,2.7,1,4.2C71.1,63.7,75.3,62.6,79.7,61.5z M98,132.5
		c-4.4,1.1-8.7,2.2-13.1,3.4c0.4,1.4,0.7,2.8,1.1,4.1c0.1,0.3,0.8,0.6,1.1,0.5c3.8-0.9,7.5-1.9,11.2-2.9c0.3-0.1,0.7-0.7,0.7-1
		C98.8,135.3,98.4,134,98,132.5z M68.8,73.1c4.4-1.1,8.7-2.2,12.9-3.3c-0.4-1.5-0.8-3-1.1-4.4c-4.4,1.1-8.6,2.2-12.9,3.3
		C68.1,70.2,68.5,71.6,68.8,73.1z M96.9,128.7c-0.4-1.6-0.8-3-1.1-4.4c-4.4,1.1-8.6,2.2-12.9,3.3c0.4,1.5,0.8,3,1.1,4.4
		C88.4,130.9,92.6,129.8,96.9,128.7z"/>
	<path class="st0" d="M92,71.1c-0.5-1.8-0.9-3.6-1.4-5.4c-0.4-1.2-0.1-2.1,0.8-3c7.8-7.6,15.6-15.2,23.4-22.7
		c1.9-1.9,3.8-3.7,5.7-5.6c1.5-1.4,3.1-0.9,3.6,1c1,3.7,1.9,7.5,2.9,11.3c0.3,1.2-0.1,2-0.9,2.9c-8.4,8.1-16.7,16.2-25.1,24.4
		c-1.3,1.3-2.6,2.6-4,3.9c-1.5,1.4-3.1,1-3.6-1C93,74.9,92.5,73,92,71.1z M96.5,73c1-1,1.8-1.7,2.6-2.5c7.7-7.5,15.5-15,23.2-22.6
		c0.3-0.3,0.8-0.8,0.7-1.1c-0.5-2.4-1.2-4.9-1.8-7.3c-0.3,0.1-0.3,0.1-0.4,0.2C112.2,48,103.6,56.4,95,64.7
		c-0.2,0.2-0.4,0.8-0.3,1.1C95.3,68.1,95.9,70.4,96.5,73z"/>
	<path class="st0" d="M80.4,99.1c0.2,0.9,0.5,1.8,0.7,2.8c0.7,2.7,1.4,5.3,2.1,8c0.4,1.6,1.3,2.3,2.5,2c1.2-0.3,1.7-1.4,1.3-3
		c0-0.1,0-0.2-0.1-0.3c-1.8-6.9-3.6-13.8-5.3-20.8c-0.1-0.4-0.2-0.8-0.4-1.2c-0.4-0.9-1.2-1.2-2.1-1c-1,0.2-1.5,0.9-1.5,2
		c0,0.4,0.1,0.8,0.2,1.3C78.7,92.2,79.5,95.6,80.4,99.1z"/>
	<path class="st0" d="M80.4,99.1c-0.9-3.4-1.8-6.8-2.6-10.3c-0.1-0.4-0.2-0.8-0.2-1.3c-0.1-1,0.4-1.7,1.5-2c0.9-0.2,1.7,0.1,2.1,1
		c0.2,0.4,0.3,0.8,0.4,1.2c1.8,6.9,3.6,13.8,5.3,20.8c0,0.1,0,0.2,0.1,0.3c0.4,1.7,0,2.7-1.3,3c-1.2,0.3-2.1-0.4-2.5-2
		c-0.7-2.7-1.4-5.3-2.1-8C80.9,100.9,80.7,100,80.4,99.1z"/>
</g>
</svg>
