<?xml version="1.0" encoding="utf-8"?>
<!-- Generator: Adobe Illustrator 24.0.2, SVG Export Plug-In . SVG Version: 6.00 Build 0)  -->
<svg version="1.1" id="Capa_1" xmlns="http://www.w3.org/2000/svg" xmlns:xlink="http://www.w3.org/1999/xlink" x="0px" y="0px"
	 viewBox="0 0 150 150" style="enable-background:new 0 0 150 150;" xml:space="preserve">
<style type="text/css">
	.st0{fill:#3487EA;}
</style>
<g>
	<path class="st0" d="M12.5,45.9c7.6-1.2,15.1-2.4,22.6-3.6c-0.2-2.2-0.6-4.3-0.7-6.5c-0.3-9,6.3-17.3,15.1-19.1
		c9.2-1.8,18.4,3.1,21.7,11.7c0.9,2.4,1.3,5.1,2,7.8c3.6-0.6,7.3-1.2,11.1-1.8c3.7-0.6,7.5-1.2,11.3-1.8c0.8,5.1,1.6,10.2,2.4,15.2
		c-2.5,0.4-4.9,0.8-7.4,1.2c-0.4-2.5-0.8-5-1.2-7.6c-5.1,0.8-10.1,1.6-15.1,2.4c0.4,2.4,0.8,4.9,1.2,7.4c-2.5,0.4-5,0.8-7.6,1.2
		c-0.4-2.4-0.8-4.9-1.2-7.4c-7.6,1.2-15.1,2.4-22.7,3.6c0.4,2.4,0.8,4.9,1.2,7.4c-2.6,0.4-5,0.8-7.6,1.2c-0.4-2.5-0.8-4.9-1.2-7.4
		c-5.1,0.8-10,1.6-15.2,2.4c0.1,0.4,0.1,0.8,0.2,1.3c3.5,22,7,44,10.5,66c0.8,5.1,4.4,7.7,9.6,6.9c10.1-1.6,20.2-3.2,30.4-4.8
		c0.8-0.1,1.3,0,1.9,0.5c2.4,1.7,4.9,3.4,7.4,5c0.3,0.2,0.5,0.3,1.1,0.6c-0.7,0.1-1,0.2-1.4,0.2c-12.8,2-25.6,4.1-38.4,6.1
		c-9,1.4-16.6-4.1-18.1-13.1c-3.9-24.6-7.8-49.2-11.7-73.8C12.6,46.8,12.6,46.4,12.5,45.9z M42.5,41c7.8-1.2,15.3-2.4,22.9-3.6
		c-0.2-1.4-0.4-2.7-0.6-4c-1-5.7-6.1-9.7-12-9.4c-5.5,0.2-10.2,4.7-10.7,10.3C42,36.5,42.4,38.7,42.5,41z"/>
	<path class="st0" d="M106.2,124c-18.8,3-36.5-9.9-39.4-28.7c-2.9-18.8,10-36.4,28.7-39.4c18.7-2.9,36.4,9.9,39.3,28.7
		C137.9,103.4,125,121.1,106.2,124z M127.4,85.8c-2.3-14.6-16.1-24.6-30.6-22.3c-14.6,2.3-24.6,16-22.3,30.6
		c2.3,14.6,16.1,24.7,30.7,22.3C119.7,114.1,129.7,100.4,127.4,85.8z"/>
	<path class="st0" d="M97.5,93c4.3-6,8.5-11.8,12.6-17.5c2,1.5,4,2.9,5.8,4.3c-5.6,7.7-11.3,15.6-16.9,23.3
		c-4.7-3.4-9.6-7-14.4-10.5c1.3-1.8,2.8-3.8,4.3-5.9C91.6,88.7,94.4,90.7,97.5,93z"/>
</g>
</svg>
