<?xml version="1.0" encoding="utf-8"?>
<!-- Generator: Adobe Illustrator 24.0.2, SVG Export Plug-In . SVG Version: 6.00 Build 0)  -->
<svg version="1.1" id="Capa_1" xmlns="http://www.w3.org/2000/svg" xmlns:xlink="http://www.w3.org/1999/xlink" x="0px" y="0px"
	 viewBox="0 0 150 150" style="enable-background:new 0 0 150 150;" xml:space="preserve">
<style type="text/css">
	.st0{fill:#ED7837;}
</style>
<g>
	<path class="st0" d="M39.3,141.4c-1.4-0.2-2.2-1.1-2.6-2.4c-6.2-18.8-12.5-37.5-18.8-56.3c-0.4-1.3-0.3-2.3,0.6-3.4
		c5.3-6.5,10.6-13.1,15.9-19.7c0.2-0.2,0.2-0.7,0.2-1c-0.3-1.2-0.7-2.3-1.1-3.4c-0.6-1.8,0-2.9,1.8-3.6c3-1,6.1-2,9.1-3.1
		c0.5-0.2,1.1-0.6,1.5-1c4.2-5,8.4-10,12.5-15.1c1-1.3,2.1-1.6,3.7-1.2c6.3,1.6,12.6,3.1,19,4.6c0.6,0.1,1.3,0.1,1.9-0.1
		c2.3-0.7,4.6-1.5,6.9-2.3c1.8-0.6,3,0,3.6,1.8c0.4,1.1,0.7,2.3,1.2,3.4c0.1,0.3,0.5,0.7,0.9,0.8c8.2,2.1,16.5,4.3,24.7,6.3
		c1.1,0.3,1.8,0.9,2.1,2c6.3,19,12.6,38,19,56.9c0.4,1.2,0.2,2.3-0.7,3.2C106.7,118.9,73,130.2,39.3,141.4z M38.5,55.4
		c0.1,0.3,0.1,0.5,0.2,0.7c5.4,16.1,10.7,32.3,16.1,48.4c0.2,0.6,0.5,0.9,1.1,1c2.1,0.5,4.3,0.9,6.4,1.5c0.8,0.2,1.2,0,1.7-0.6
		c4-4.5,8.1-9,12.1-13.6c1-1.1,2-1.5,3.5-1.2C86,92.9,92.5,94,99,95.2c0.9,0.2,1.5,0,2-0.8c1.4-1.8,2.9-3.6,4.5-5.3
		c0.6-0.6,0.6-1.2,0.4-2C100.5,71.3,95.2,55.4,90,39.6c-0.1-0.4-0.2-0.7-0.4-1.2C72.5,44.1,55.5,49.7,38.5,55.4z M131.3,105.8
		c-0.6-0.1-0.9-0.2-1.2-0.3c-16.6-3-33.2-6-49.8-9c-0.7-0.1-1.2,0-1.7,0.6c-10.8,12.2-21.7,24.3-32.6,36.4c-0.2,0.2-0.4,0.5-0.7,0.9
		C74,124.9,102.5,115.4,131.3,105.8z M109.7,84c0.2-0.1,0.3-0.1,0.3-0.2c4.5-5.3,9-10.6,13.5-15.9c0.2-0.3,0.3-0.9,0.2-1.3
		c-1.7-5.3-3.5-10.6-5.3-15.9c-0.2-0.6-0.5-0.9-1.2-1.1c-6.6-1.7-13.2-3.4-19.7-5c-0.3-0.1-0.5-0.1-0.9-0.1
		C100.9,57.7,105.3,70.8,109.7,84z M36.5,64.4c-4.6,5.7-9.1,11.3-13.5,16.9c-0.2,0.3-0.2,0.8-0.1,1.2c1.7,5.3,3.5,10.6,5.3,15.9
		c0.2,0.6,0.6,0.9,1.2,1c4.5,1,8.9,2,13.3,3c2.3,0.5,4.6,1,7,1.6C45.3,90.8,40.9,77.7,36.5,64.4z M125.6,72.7
		c-6.8,8-13.4,15.7-20.1,23.6c10,1.8,19.8,3.6,29.7,5.3C132,92,128.8,82.4,125.6,72.7z M39.8,133.4c6.7-7.5,13.2-14.8,19.9-22.2
		c-10-2.3-19.7-4.5-29.5-6.7C33.4,114.2,36.6,123.7,39.8,133.4z M73.1,38.8c0-0.1,0-0.1,0-0.2c-3.5-0.9-7.1-1.7-10.6-2.6
		c-0.7-0.2-1.2-0.1-1.7,0.5c-2.1,2.6-4.3,5.2-6.5,7.8c-0.2,0.2-0.3,0.4-0.6,0.8C60.4,43,66.8,40.9,73.1,38.8z"/>
	<path class="st0" d="M39.8,37.3c0.5,1.3,0.1,2.4-0.9,3c-0.9,0.6-2.1,0.5-2.9-0.4c-0.9-1-1.8-2.1-2.7-3.2c-1.7-2.1-3.5-4.1-5.2-6.2
		c-1.1-1.3-1.1-2.7,0-3.7c1.1-0.9,2.4-0.7,3.5,0.6c2.5,3,5,6,7.6,8.9C39.5,36.8,39.7,37.1,39.8,37.3z"/>
	<path class="st0" d="M85.2,10.4c0,0.2,0.1,0.5,0,0.9c-0.2,4-0.5,8.1-0.7,12.1c-0.1,1.3-0.8,2.2-1.9,2.4c-1.1,0.2-2.1-0.3-2.5-1.3
		c-0.2-0.4-0.2-0.9-0.2-1.4c0.2-4,0.5-8.1,0.7-12.1c0.1-1.4,1-2.3,2.1-2.4C83.7,8.5,84.8,9.2,85.2,10.4z"/>
	<path class="st0" d="M23.8,55.2c0.1,1.1-0.1,1.9-0.8,2.6c-0.8,0.7-1.7,0.8-2.6,0.4c-1.9-0.9-3.8-1.9-5.7-2.8
		c-1.5-0.8-3-1.5-4.5-2.3c-1.4-0.7-1.9-2-1.3-3.3c0.6-1.2,2-1.6,3.4-0.9c3.3,1.6,6.6,3.3,9.9,5C22.8,54.2,23.2,54.7,23.8,55.2z"/>
	<path class="st0" d="M101.3,29.1c0.1-0.3,0-0.9,0.3-1.5c1.7-3.5,3.4-6.9,5.1-10.3c0.7-1.3,2-1.8,3.2-1.1c1.2,0.6,1.6,1.9,1,3.2
		c-1.7,3.4-3.4,6.9-5.1,10.3c-0.5,0.9-1.2,1.4-2.3,1.3C102.4,30.9,101.7,30.4,101.3,29.1z"/>
	<path class="st0" d="M68,70.1c-4.3,1.4-8.5,2.8-12.8,4.3c-2,0.7-3,0.1-3.7-1.9c-1.4-4.1-2.7-8.1-4.1-12.2c-0.7-2-0.1-3.1,1.8-3.7
		c8.5-2.8,17.1-5.7,25.6-8.5c2-0.6,3-0.1,3.7,1.9c1.4,4.1,2.7,8.1,4.1,12.2c0.7,2,0.2,3-1.8,3.7C76.6,67.3,72.3,68.7,68,70.1z
		 M74.7,53.2c-7.4,2.5-14.7,4.9-22.1,7.3c1,3,1.9,5.9,2.9,8.8c7.4-2.5,14.7-4.9,22.1-7.3C76.6,59,75.6,56.1,74.7,53.2z"/>
	<path class="st0" d="M58.4,93c-0.5-1.5-1-2.9-1.4-4.3c11.8-3.9,23.6-7.9,35.4-11.8c0.5,1.4,0.9,2.8,1.4,4.3
		C82.1,85.1,70.3,89.1,58.4,93z"/>
	<path class="st0" d="M54.1,79.8c11.8-3.9,23.6-7.9,35.4-11.8c0.5,1.4,0.9,2.8,1.4,4.3c-11.8,3.9-23.6,7.8-35.4,11.8
		C55,82.7,54.6,81.3,54.1,79.8z"/>
</g>
</svg>
