<?xml version="1.0" encoding="utf-8"?>
<!-- Generator: Adobe Illustrator 24.0.2, SVG Export Plug-In . SVG Version: 6.00 Build 0)  -->
<svg version="1.1" id="Capa_1" xmlns="http://www.w3.org/2000/svg" xmlns:xlink="http://www.w3.org/1999/xlink" x="0px" y="0px"
	 viewBox="0 0 165 43" style="enable-background:new 0 0 165 43;" xml:space="preserve">
<style type="text/css">
	.st0{fill:#FFFFFF;fill-opacity:0.949;}
	.st1{fill:#FFFFFF;}
</style>
<g>
	<polygon class="st0" points="46.6,12.2 61.5,12.2 61.5,15.8 51,15.8 51,20 60.6,20 60.6,23.4 51,23.4 51,28.2 61.7,28.2 61.7,31.9 
		46.6,31.9 	"/>
	<path class="st1" d="M95.1,24.4c0,1.5-0.3,2.5-0.9,3.2s-1.7,1-3.2,1c-0.9,0-1.6-0.1-2.1-0.4c-0.5-0.2-0.9-0.6-1.2-1
		c-0.3-0.4-0.5-0.9-0.6-1.4s-0.1-1-0.1-1.6v-12h-4.5v12.2c0,2.7,0.7,4.7,2.2,6c1.5,1.3,3.6,1.9,6.3,1.9c2.7,0,4.8-0.7,6.3-2
		s2.3-3.3,2.3-5.9V12.2h-4.4v12.2H95.1z"/>
	<polygon class="st1" points="116,25.4 116,25.4 107.6,12.2 103.3,12.2 103.3,31.9 107.4,31.9 107.4,18.7 107.4,18.7 115.7,31.9 
		120.1,31.9 120.1,12.2 116,12.2 	"/>
	<polygon class="st1" points="128.4,12.2 124,12.2 124,31.9 138.1,31.9 138.1,28.2 128.4,28.2 	"/>
	<path class="st1" d="M151.9,14.3v9.6c0,1.8-0.3,3.1-0.9,3.8c-0.6,0.8-1.6,1.2-2.9,1.2c-1.1,0-2-0.4-2.4-1.1
		c-0.5-0.7-0.7-1.8-0.7-3.2V14.3h-4.5v10.8c0,1.1,0.1,2.1,0.3,3s0.5,1.6,1,2.3c0.5,0.6,1.1,1.1,2,1.5c0.8,0.4,1.9,0.5,3.2,0.5
		c0.8,0,1.7-0.2,2.5-0.5l0.2-0.1c1-0.5,2-1.4,2.4-2.4h0.1v2.4h4.2v-3.1V14.3H151.9L151.9,14.3z"/>
	<path class="st0" d="M74.6,30.1L74.6,30.1c-0.5,0.8-1.1,1.3-1.9,1.7c-0.8,0.3-1.6,0.5-2.6,0.5c-1.1,0-2.1-0.2-2.9-0.6
		c-0.8-0.4-1.5-1-2-1.7s-0.9-1.5-1.2-2.4c-0.3-0.9-0.4-1.9-0.4-2.9s0.1-1.9,0.4-2.8c0.3-0.9,0.7-1.7,1.2-2.4c0.5-0.7,1.2-1.2,2-1.6
		s1.7-0.6,2.8-0.6c0.9,0,1.7,0.2,2.5,0.5c0.8,0.4,1.4,0.9,1.8,1.6h0.1v-7.2h4.4v19.7h-4.2L74.6,30.1L74.6,30.1z M74.6,24.7
		c0-0.6-0.1-1.1-0.2-1.7s-0.3-1-0.6-1.4c-0.3-0.4-0.6-0.8-1.1-1c-0.4-0.3-1-0.4-1.6-0.4c-0.7,0-1.2,0.1-1.7,0.4
		c-0.4,0.3-0.8,0.6-1.1,1c-0.3,0.4-0.5,0.9-0.6,1.5c-0.1,0.5-0.2,1.1-0.2,1.7s0.1,1.1,0.2,1.7s0.3,1,0.6,1.5c0.3,0.4,0.6,0.8,1.1,1
		c0.4,0.3,1,0.4,1.6,0.4s1.2-0.1,1.6-0.4s0.8-0.6,1-1c0.3-0.4,0.4-0.9,0.6-1.5C74.5,25.9,74.6,25.3,74.6,24.7L74.6,24.7z"/>
	<g>
		<path class="st1" d="M21.2,5.7L8.6,12.8v14.7l17.2,9.8l12.6-7.2l-2.7-1.6l-9.9,5.7l-6.3-3.5v-5.3l-4.7,2.7V16.4l10.6-6L30,13
			l-10.6,6l6.3,3.6l12.6-7.2L21.2,5.7z M10.5,25.6V13.9l10.6-6l2.4,1.3l-10.6,6.1V27L10.5,25.6L10.5,25.6z M23.5,19L32,14l2.4,1.3
			l-8.6,4.9L23.5,19L23.5,19z"/>
		<polygon class="st0" points="25.8,34.3 19.5,30.8 19.5,19 25.8,22.6 		"/>
	</g>
</g>
</svg>
