<?xml version="1.0" encoding="utf-8"?>
<!-- Generator: Adobe Illustrator 24.0.2, SVG Export Plug-In . SVG Version: 6.00 Build 0)  -->
<svg version="1.1" id="Capa_1" xmlns="http://www.w3.org/2000/svg" xmlns:xlink="http://www.w3.org/1999/xlink" x="0px" y="0px"
	 viewBox="0 0 47 47" style="enable-background:new 0 0 47 47;" xml:space="preserve">
<style type="text/css">
	.st0{fill:url(#SVGID_1_);}
	.st1{fill:#FFFFFF;}
</style>
<g>
	
		<linearGradient id="SVGID_1_" gradientUnits="userSpaceOnUse" x1="73.1424" y1="6.883" x2="39.9083" y2="40.117" gradientTransform="matrix(1 0 0 1 -33.0254 0)">
		<stop  offset="1.104800e-03" style="stop-color:#FFE185"/>
		<stop  offset="0.2094" style="stop-color:#FFBB36"/>
		<stop  offset="0.3765" style="stop-color:#FF5176"/>
		<stop  offset="0.5238" style="stop-color:#F63395"/>
		<stop  offset="0.7394" style="stop-color:#A436D2"/>
		<stop  offset="1" style="stop-color:#5F4EED"/>
	</linearGradient>
	<circle class="st0" cx="23.5" cy="23.5" r="23.5"/>
	<g>
		<g>
			<path class="st1" d="M30.8,14.6c-0.9,0-1.6,0.7-1.6,1.6c0,0.9,0.7,1.6,1.6,1.6c0.9,0,1.6-0.7,1.6-1.6
				C32.4,15.3,31.7,14.6,30.8,14.6z"/>
			<path class="st1" d="M23.6,16.7c-3.7,0-6.8,3-6.8,6.8c0,3.7,3,6.8,6.8,6.8c3.7,0,6.8-3,6.8-6.8C30.4,19.7,27.4,16.7,23.6,16.7z
				 M23.6,27.8c-2.4,0-4.3-1.9-4.3-4.3s1.9-4.3,4.3-4.3c2.4,0,4.3,1.9,4.3,4.3S26,27.8,23.6,27.8z"/>
			<path class="st1" d="M29,37.2H18c-4.6,0-8.3-3.7-8.3-8.3V18c0-4.6,3.7-8.3,8.3-8.3h11c4.6,0,8.3,3.7,8.3,8.3v11
				C37.3,33.5,33.6,37.2,29,37.2z M18,12.3c-3.1,0-5.7,2.5-5.7,5.7v11c0,3.1,2.5,5.7,5.7,5.7h11c3.1,0,5.7-2.5,5.7-5.7V18
				c0-3.1-2.6-5.7-5.7-5.7H18z"/>
		</g>
	</g>
</g>
</svg>
