<?xml version="1.0" encoding="utf-8"?>
<!-- Generator: Adobe Illustrator 24.0.2, SVG Export Plug-In . SVG Version: 6.00 Build 0)  -->
<svg version="1.1" id="Capa_1" xmlns="http://www.w3.org/2000/svg" xmlns:xlink="http://www.w3.org/1999/xlink" x="0px" y="0px"
	 viewBox="0 0 47 47" style="enable-background:new 0 0 47 47;" xml:space="preserve">
<style type="text/css">
	.st0{fill:url(#SVGID_1_);}
	.st1{fill:#FFFFFF;}
</style>
<g>
	
		<linearGradient id="SVGID_1_" gradientUnits="userSpaceOnUse" x1="73.1424" y1="6.883" x2="39.9084" y2="40.117" gradientTransform="matrix(1 0 0 1 -33.0254 0)">
		<stop  offset="0" style="stop-color:#FF0000"/>
		<stop  offset="1" style="stop-color:#9B0000"/>
	</linearGradient>
	<circle class="st0" cx="23.5" cy="23.5" r="23.5"/>
	<path class="st1" d="M36.1,20.1c0-3.1-2.5-5.6-5.6-5.6H16c-3.1,0-5.6,2.5-5.6,5.6v6.7c0,3.1,2.5,5.6,5.6,5.6h14.4
		c3.1,0,5.6-2.5,5.6-5.6V20.1z M27.6,23.9l-6.5,3.2c-0.3,0.1-1.1,0-1.1-0.3v-6.6c0-0.3,0.9-0.5,1.1-0.3l6.2,3.4
		C27.6,23.4,27.9,23.8,27.6,23.9z"/>
</g>
</svg>
